<svg width="243" height="64" viewBox="0 0 243 64" fill="none" xmlns="http://www.w3.org/2000/svg">
<path d="M236.509 47.6562V17.3584C236.509 16.6911 236.289 16.1296 235.85 15.6738C235.41 15.2181 234.873 14.9902 234.238 14.9902H224.302C223.667 14.9902 223.065 15.2181 222.495 15.6738C221.925 16.1296 221.543 16.6748 221.348 17.3096L214.146 38.1592L206.943 17.3096C206.748 16.6748 206.366 16.1296 205.796 15.6738C205.226 15.2181 204.624 14.9902 203.989 14.9902H194.053C193.418 14.9902 192.889 15.2181 192.466 15.6738C192.026 16.1296 191.807 16.6911 191.807 17.3584V47.6562C191.807 48.3236 192.035 48.8851 192.49 49.3408C192.93 49.7803 193.467 50 194.102 50H198.496C199.131 50 199.676 49.7803 200.132 49.3408C200.571 48.8851 200.791 48.3236 200.791 47.6562V23.8037L209.409 47.8027C209.637 48.4049 210.036 48.9258 210.605 49.3652C211.175 49.7884 211.777 50 212.412 50H215.903C216.538 50 217.14 49.7884 217.71 49.3652C218.263 48.9258 218.662 48.4049 218.906 47.8027L227.5 23.8037V47.6562C227.5 48.3236 227.728 48.8851 228.184 49.3408C228.623 49.7803 229.16 50 229.795 50H234.189C234.824 50 235.369 49.7803 235.825 49.3408C236.281 48.8851 236.509 48.3236 236.509 47.6562ZM185.288 36.1572V17.3096C185.288 16.6748 185.068 16.1296 184.629 15.6738C184.173 15.2181 183.612 14.9902 182.944 14.9902H178.379C177.76 14.9902 177.223 15.2181 176.768 15.6738C176.312 16.1296 176.084 16.6748 176.084 17.3096V36.2061C176.084 38.5986 175.563 40.3809 174.521 41.5527C173.464 42.7246 171.836 43.3105 169.639 43.3105H165.732C163.535 43.3105 161.916 42.7246 160.874 41.5527C159.816 40.3809 159.287 38.5986 159.287 36.2061V17.3096C159.287 16.6748 159.067 16.1296 158.628 15.6738C158.172 15.2181 157.627 14.9902 156.992 14.9902H152.451C151.784 14.9902 151.222 15.2181 150.767 15.6738C150.311 16.1296 150.083 16.6748 150.083 17.3096V36.1572C150.083 40.6169 151.393 44.0755 154.014 46.5332C156.634 48.9746 160.459 50.1953 165.488 50.1953H169.883C174.928 50.1953 178.761 48.9746 181.382 46.5332C183.986 44.0755 185.288 40.6169 185.288 36.1572ZM145.591 41.04C145.591 40.0798 145.306 39.3962 144.736 38.9893C144.167 38.5661 143.613 38.3545 143.076 38.3545H140.171C138.706 38.3545 137.591 39.152 136.826 40.7471C136.061 42.3421 134.344 43.1396 131.675 43.1396L123.13 43.3105C120.265 43.3105 118.833 42.3747 118.833 40.5029C118.833 39.0869 120.583 37.972 124.082 37.1582C125.645 36.7839 127.37 36.4176 129.258 36.0596C131.146 35.6852 133.026 35.2214 134.897 34.668C136.753 34.1146 138.462 33.4635 140.024 32.7148C141.587 31.9661 142.856 30.9408 143.833 29.6387C144.793 28.3203 145.273 26.7741 145.273 25C145.273 21.7285 144.11 19.2139 141.782 17.4561C139.455 15.682 135.451 14.7949 129.771 14.7949L123.569 14.9414C120.233 14.9414 117.23 15.804 114.561 17.5293C111.875 19.2383 110.532 21.3786 110.532 23.9502C110.532 24.9105 110.817 25.6022 111.387 26.0254C111.956 26.4486 112.502 26.6602 113.022 26.6602H115.928C117.393 26.6602 118.507 25.8626 119.272 24.2676C120.037 22.6562 121.755 21.8506 124.424 21.8506L131.772 21.7041C134.637 21.7041 136.069 22.64 136.069 24.5117C136.069 25.5371 135.166 26.3753 133.359 27.0264C131.536 27.6774 129.339 28.2552 126.768 28.7598C124.18 29.248 121.584 29.8421 118.979 30.542C116.375 31.2419 114.17 32.3975 112.363 34.0088C110.54 35.6038 109.629 37.5977 109.629 39.9902C109.629 43.2617 110.801 45.7845 113.145 47.5586C115.472 49.3164 119.468 50.1953 125.132 50.1953L132.529 50.0488C135.866 50.0488 138.877 49.1943 141.562 47.4854C144.248 45.7601 145.591 43.6117 145.591 41.04ZM104.624 47.7539V17.3096C104.624 16.6748 104.396 16.1296 103.94 15.6738C103.485 15.2181 102.939 14.9902 102.305 14.9902H97.7637C97.0964 14.9902 96.543 15.2181 96.1035 15.6738C95.6478 16.1296 95.4199 16.6748 95.4199 17.3096V47.7051C95.4199 48.3398 95.6559 48.8851 96.1279 49.3408C96.5837 49.7803 97.1289 50 97.7637 50H102.305C102.939 50 103.485 49.7884 103.94 49.3652C104.396 48.9258 104.624 48.3887 104.624 47.7539ZM52.1826 48.9258C52.1826 49.6419 52.6058 50 53.4521 50H59.043C59.6777 50 60.3613 49.7803 61.0938 49.3408C61.8262 48.8851 62.3958 48.3398 62.8027 47.7051L67.0996 40.8936C68.125 39.2334 69.1585 37.9883 70.2002 37.1582C71.2419 36.3118 72.4951 35.8887 73.96 35.8887H79.209V47.7539C79.209 48.3887 79.4368 48.9258 79.8926 49.3652C80.332 49.7884 80.8691 50 81.5039 50H86.0938C86.7285 50 87.2738 49.7721 87.7295 49.3164C88.1852 48.8444 88.4131 48.291 88.4131 47.6562V17.3096C88.4131 16.6748 88.1852 16.1214 87.7295 15.6494C87.2738 15.1774 86.7285 14.9414 86.0938 14.9414H81.5039C80.8691 14.9414 80.332 15.1774 79.8926 15.6494C79.4368 16.1214 79.209 16.6748 79.209 17.3096V29.0039H73.96C72.5277 29.0039 71.2744 28.6133 70.2002 27.832C69.1097 27.0508 68.0762 25.7894 67.0996 24.0479L63.3154 17.3096C62.4528 15.7471 61.2809 14.9577 59.7998 14.9414H54.1602C53.3789 14.9414 52.9883 15.2832 52.9883 15.9668C52.9883 16.3411 53.1266 16.7887 53.4033 17.3096L58.7012 26.9043C59.4661 28.304 60.3288 29.4596 61.2891 30.3711C62.2331 31.2826 63.4701 31.9255 65 32.2998C63.9258 32.5277 62.8271 33.2031 61.7041 34.3262C60.5648 35.4492 59.5638 36.6699 58.7012 37.9883L52.5977 47.7051C52.321 48.1771 52.1826 48.584 52.1826 48.9258ZM48.667 47.6562V17.2607C48.667 16.626 48.4391 16.0889 47.9834 15.6494C47.5277 15.21 46.9824 14.9902 46.3477 14.9902H18.1982C17.5635 14.9902 17.0264 15.2181 16.5869 15.6738C16.1312 16.1296 15.9033 16.6748 15.9033 17.3096V19.6045C15.9033 20.2393 16.1312 20.7845 16.5869 21.2402C17.0264 21.6797 17.5635 21.8994 18.1982 21.8994H39.4629V29.0039H21.1523C20.5176 29.0039 19.9805 29.2318 19.541 29.6875C19.0853 30.127 18.8574 30.6641 18.8574 31.2988V33.5938C18.8574 34.2285 19.0853 34.7738 19.541 35.2295C19.9805 35.6689 20.5176 35.8887 21.1523 35.8887H39.4629V43.0908H18.2471C17.6286 43.0908 17.0996 43.3105 16.6602 43.75C16.2207 44.1895 16.001 44.7266 16.001 45.3613V47.7051C16.001 48.3398 16.2288 48.8851 16.6846 49.3408C17.1403 49.7803 17.6855 50 18.3203 50H46.3477C46.9824 50 47.5277 49.7803 47.9834 49.3408C48.4391 48.8851 48.667 48.3236 48.667 47.6562Z" fill="black"/>
<path d="M241 32.5H3M3 32.5L12.4754 41M3 32.5L7.7377 28.25L12.4754 24" stroke="#FA9C45" stroke-width="4" stroke-linecap="round"/>
</svg>
